REM DIRINDEX 1\2,1\3,1\4
REM DIRNAME folder01,folder02,folder03,folder04
TITLE ""
FILE "Track16.mp3" MP3
  TRACK 01 AUDIO
    TITLE "0:"
    INDEX 01 00:00:00
  TRACK 02 AUDIO
    TITLE "4:cjc153_0934"
    INDEX 01 00:00:07
  TRACK 03 AUDIO
    TITLE "0:"
    INDEX 01 00:02:10
  TRACK 04 AUDIO
    TITLE "2:cjc153_0935"
    INDEX 01 00:02:71
  TRACK 05 AUDIO
    TITLE "0:"
    INDEX 01 00:04:07
  TRACK 06 AUDIO
    TITLE "3:cjc153_0936"
    INDEX 01 00:04:38
  TRACK 07 AUDIO
    TITLE "0:"
    INDEX 01 00:05:46
  TRACK 08 AUDIO
    TITLE "2:cjc153_0937"
    INDEX 01 00:06:10
  TRACK 09 AUDIO
    TITLE "0:"
    INDEX 01 00:07:13
  TRACK 10 AUDIO
    TITLE "3:cjc153_0938"
    INDEX 01 00:07:45
  TRACK 11 AUDIO
    TITLE "0:"
    INDEX 01 00:08:52
  TRACK 12 AUDIO
    TITLE "2:cjc153_0939"
    INDEX 01 00:09:22
  TRACK 13 AUDIO
    TITLE "0:"
    INDEX 01 00:10:27
  TRACK 14 AUDIO
    TITLE "3:cjc153_0940"
    INDEX 01 00:10:59
  TRACK 15 AUDIO
    TITLE "0:"
    INDEX 01 00:11:66
  TRACK 16 AUDIO
    TITLE "2:cjc153_0941"
    INDEX 01 00:12:36
  TRACK 17 AUDIO
    TITLE "0:"
    INDEX 01 00:13:43
  TRACK 18 AUDIO
    TITLE "3:cjc153_0942"
    INDEX 01 00:14:02
  TRACK 19 AUDIO
    TITLE "0:"
    INDEX 01 00:15:13
  TRACK 20 AUDIO
    TITLE "2:cjc153_0943"
    INDEX 01 00:15:58
  TRACK 21 AUDIO
    TITLE "0:"
    INDEX 01 00:16:69
  TRACK 22 AUDIO
    TITLE "3:cjc153_0944"
    INDEX 01 00:17:29
  TRACK 23 AUDIO
    TITLE "0:"
    INDEX 01 00:18:44
  TRACK 24 AUDIO
    TITLE "2:cjc153_0945"
    INDEX 01 00:19:15
  TRACK 25 AUDIO
    TITLE "0:"
    INDEX 01 00:20:22
  TRACK 26 AUDIO
    TITLE "3:cjc153_0946"
    INDEX 01 00:20:53
  TRACK 27 AUDIO
    TITLE "0:"
    INDEX 01 00:21:70
  TRACK 28 AUDIO
    TITLE "2:cjc153_0947"
    INDEX 01 00:22:38
  TRACK 29 AUDIO
    TITLE "0:"
    INDEX 01 00:23:53
  TRACK 30 AUDIO
    TITLE "3:cjc153_0948"
    INDEX 01 00:24:12
  TRACK 31 AUDIO
    TITLE "0:"
    INDEX 01 00:25:25
  TRACK 32 AUDIO
    TITLE "2:cjc153_0949"
    INDEX 01 00:25:72
  TRACK 33 AUDIO
    TITLE "0:"
    INDEX 01 00:27:00
  TRACK 34 AUDIO
    TITLE "3:cjc153_0950"
    INDEX 01 00:27:34
  TRACK 35 AUDIO
    TITLE "0:"
    INDEX 01 00:28:37
  TRACK 36 AUDIO
    TITLE "2:cjc153_0951"
    INDEX 01 00:29:05
  TRACK 37 AUDIO
    TITLE "0:"
    INDEX 01 00:30:18
  TRACK 38 AUDIO
    TITLE "3:cjc153_0952"
    INDEX 01 00:30:48
  TRACK 39 AUDIO
    TITLE "0:"
    INDEX 01 00:31:61
  TRACK 40 AUDIO
    TITLE "2:cjc153_0953"
    INDEX 01 00:32:31
  TRACK 41 AUDIO
    TITLE "0:"
    INDEX 01 00:33:36
  TRACK 42 AUDIO
    TITLE "3:cjc153_0954"
    INDEX 01 00:33:69
  TRACK 43 AUDIO
    TITLE "0:"
    INDEX 01 00:35:00
  TRACK 44 AUDIO
    TITLE "2:cjc153_0955"
    INDEX 01 00:35:47
  TRACK 45 AUDIO
    TITLE "0:"
    INDEX 01 00:36:54
  TRACK 46 AUDIO
    TITLE "3:cjc153_0956"
    INDEX 01 00:37:14
  TRACK 47 AUDIO
    TITLE "0:"
    INDEX 01 00:38:28
  TRACK 48 AUDIO
    TITLE "2:cjc153_0957"
    INDEX 01 00:38:71
  TRACK 49 AUDIO
    TITLE "0:"
    INDEX 01 00:40:13
  TRACK 50 AUDIO
    TITLE "3:cjc153_0958"
    INDEX 01 00:40:44
  TRACK 51 AUDIO
    TITLE "0:"
    INDEX 01 00:41:61
  TRACK 52 AUDIO
    TITLE "2:cjc153_0959"
    INDEX 01 00:42:29
  TRACK 53 AUDIO
    TITLE "0:"
    INDEX 01 00:43:25
  TRACK 54 AUDIO
    TITLE "3:cjc153_0960"
    INDEX 01 00:43:58
  TRACK 55 AUDIO
    TITLE "0:"
    INDEX 01 00:44:58
  TRACK 56 AUDIO
    TITLE "2:cjc153_0961"
    INDEX 01 00:45:30
  TRACK 57 AUDIO
    TITLE "0:"
    INDEX 01 00:46:25
  TRACK 58 AUDIO
    TITLE "3:cjc153_0962"
    INDEX 01 00:46:58
  TRACK 59 AUDIO
    TITLE "0:"
    INDEX 01 00:47:58
  TRACK 60 AUDIO
    TITLE "2:cjc153_0963"
    INDEX 01 00:48:28
  TRACK 61 AUDIO
    TITLE "0:"
    INDEX 01 00:49:27
  TRACK 62 AUDIO
    TITLE "3:cjc153_0964"
    INDEX 01 00:49:51
  TRACK 63 AUDIO
    TITLE "0:"
    INDEX 01 00:50:52
  TRACK 64 AUDIO
    TITLE "2:cjc153_0965"
    INDEX 01 00:51:20
  TRACK 65 AUDIO
    TITLE "0:"
    INDEX 01 00:52:12
  TRACK 66 AUDIO
    TITLE "3:cjc153_0966"
    INDEX 01 00:52:45
  TRACK 67 AUDIO
    TITLE "0:"
    INDEX 01 00:53:43
  TRACK 68 AUDIO
    TITLE "2:cjc153_0967"
    INDEX 01 00:54:13
  TRACK 69 AUDIO
    TITLE "0:"
    INDEX 01 00:55:04
  TRACK 70 AUDIO
    TITLE "3:cjc153_0968"
    INDEX 01 00:55:53
  TRACK 71 AUDIO
    TITLE "0:"
    INDEX 01 00:56:43
  TRACK 72 AUDIO
    TITLE "2:cjc153_0969"
    INDEX 01 00:57:29
  TRACK 73 AUDIO
    TITLE "0:"
    INDEX 01 00:58:54
  TRACK 74 AUDIO
    TITLE "3:cjc153_0970"
    INDEX 01 00:59:14
  TRACK 75 AUDIO
    TITLE "0:"
    INDEX 01 01:00:49
  TRACK 76 AUDIO
    TITLE "2:cjc153_0971"
    INDEX 01 01:01:17
  TRACK 77 AUDIO
    TITLE "0:"
    INDEX 01 01:02:06
  TRACK 78 AUDIO
    TITLE "3:cjc153_0972"
    INDEX 01 01:02:55
  TRACK 79 AUDIO
    TITLE "0:"
    INDEX 01 01:03:45
  TRACK 80 AUDIO
    TITLE "2:cjc153_0973"
    INDEX 01 01:04:29
  TRACK 81 AUDIO
    TITLE "0:"
    INDEX 01 01:05:46
  TRACK 82 AUDIO
    TITLE "3:cjc153_0974"
    INDEX 01 01:06:06
  TRACK 83 AUDIO
    TITLE "0:"
    INDEX 01 01:07:29
  TRACK 84 AUDIO
    TITLE "2:cjc153_0975"
    INDEX 01 01:07:70
  TRACK 85 AUDIO
    TITLE "0:"
    INDEX 01 01:08:72
  TRACK 86 AUDIO
    TITLE "3:cjc153_0976"
    INDEX 01 01:09:32
  TRACK 87 AUDIO
    TITLE "0:"
    INDEX 01 01:10:35
  TRACK 88 AUDIO
    TITLE "2:cjc153_0977"
    INDEX 01 01:11:03
  TRACK 89 AUDIO
    TITLE "0:"
    INDEX 01 01:12:19
  TRACK 90 AUDIO
    TITLE "3:cjc153_0978"
    INDEX 01 01:12:52
  TRACK 91 AUDIO
    TITLE "0:"
    INDEX 01 01:13:69
  TRACK 92 AUDIO
    TITLE "2:cjc153_0979"
    INDEX 01 01:14:39
  TRACK 93 AUDIO
    TITLE "0:"
    INDEX 01 01:15:44
  TRACK 94 AUDIO
    TITLE "3:cjc153_0980"
    INDEX 01 01:16:01
  TRACK 95 AUDIO
    TITLE "0:"
    INDEX 01 01:17:06
  TRACK 96 AUDIO
    TITLE "2:cjc153_0981"
    INDEX 01 01:17:53
  TRACK 97 AUDIO
    TITLE "0:"
    INDEX 01 01:19:01
  TRACK 98 AUDIO
    TITLE "3:cjc153_0982"
    INDEX 01 01:19:34
  TRACK 99 AUDIO
    TITLE "0:"
    INDEX 01 01:20:53
  TRACK 100 AUDIO
    TITLE "2:cjc153_0983"
    INDEX 01 01:21:23
  TRACK 101 AUDIO
    TITLE "0:"
    INDEX 01 01:22:19
  TRACK 102 AUDIO
    TITLE "3:cjc153_0984"
    INDEX 01 01:22:54
  TRACK 103 AUDIO
    TITLE "0:"
    INDEX 01 01:23:54
  TRACK 104 AUDIO
    TITLE "2:cjc153_0985"
    INDEX 01 01:24:24
  TRACK 105 AUDIO
    TITLE "0:"
    INDEX 01 01:25:25
  TRACK 106 AUDIO
    TITLE "3:cjc153_0986"
    INDEX 01 01:25:57
  TRACK 107 AUDIO
    TITLE "0:"
    INDEX 01 01:26:58
  TRACK 108 AUDIO
    TITLE "2:cjc153_0987"
    INDEX 01 01:27:28
  TRACK 109 AUDIO
    TITLE "0:"
    INDEX 01 01:28:33
  TRACK 110 AUDIO
    TITLE "3:cjc153_0988"
    INDEX 01 01:28:67
  TRACK 111 AUDIO
    TITLE "0:"
    INDEX 01 01:30:01
  TRACK 112 AUDIO
    TITLE "2:cjc153_0989"
    INDEX 01 01:30:46
  TRACK 113 AUDIO
    TITLE "0:"
    INDEX 01 01:31:45
  TRACK 114 AUDIO
    TITLE "3:cjc153_0990"
    INDEX 01 01:32:04
  TRACK 115 AUDIO
    TITLE "0:"
    INDEX 01 01:33:03
  TRACK 116 AUDIO
    TITLE "2:cjc153_0991"
    INDEX 01 01:33:48
  TRACK 117 AUDIO
    TITLE "0:"
    INDEX 01 01:34:42
  TRACK 118 AUDIO
    TITLE "3:cjc153_0992"
    INDEX 01 01:34:73
  TRACK 119 AUDIO
    TITLE "0:"
    INDEX 01 01:36:01
  TRACK 120 AUDIO
    TITLE "2:cjc153_0993"
    INDEX 01 01:36:45
  TRACK 121 AUDIO
    TITLE "0:"
    INDEX 01 01:37:52
  TRACK 122 AUDIO
    TITLE "3:cjc153_0994"
    INDEX 01 01:38:10
  TRACK 123 AUDIO
    TITLE "0:"
    INDEX 01 01:39:25
  TRACK 124 AUDIO
    TITLE "2:cjc153_0995"
    INDEX 01 01:39:68
  TRACK 125 AUDIO
    TITLE "0:"
    INDEX 01 01:41:01
  TRACK 126 AUDIO
    TITLE "3:cjc153_0996"
    INDEX 01 01:41:36
  TRACK 127 AUDIO
    TITLE "0:"
    INDEX 01 01:42:49
  TRACK 128 AUDIO
    TITLE "2:cjc153_0997"
    INDEX 01 01:43:21
  TRACK 129 AUDIO
    TITLE "0:"
    INDEX 01 01:44:26
  TRACK 130 AUDIO
    TITLE "3:cjc153_0998"
    INDEX 01 01:44:58
  TRACK 131 AUDIO
    TITLE "0:"
    INDEX 01 01:45:67
  TRACK 132 AUDIO
    TITLE "2:cjc153_0999"
    INDEX 01 01:46:39
  TRACK 133 AUDIO
    TITLE "0:"
    INDEX 01 01:47:37
  TRACK 134 AUDIO
    TITLE "3:cjc153_1000"
    INDEX 01 01:47:68
  TRACK 135 AUDIO
    TITLE "0:"
    INDEX 01 01:48:73
  TRACK 136 AUDIO
    TITLE "2:cjc153_1001"
    INDEX 01 01:49:41
  TRACK 137 AUDIO
    TITLE "0:"
    INDEX 01 01:50:56
  TRACK 138 AUDIO
    TITLE "3:cjc153_1002"
    INDEX 01 01:51:13
  TRACK 139 AUDIO
    TITLE "0:"
    INDEX 01 01:52:34
  TRACK 140 AUDIO
    TITLE "2:cjc153_1003"
    INDEX 01 01:53:04
  TRACK 141 AUDIO
    TITLE "0:"
    INDEX 01 01:54:27
  TRACK 142 AUDIO
    TITLE "3:cjc153_1004"
    INDEX 01 01:54:62
  TRACK 143 AUDIO
    TITLE "0:"
    INDEX 01 01:56:16
  TRACK 144 AUDIO
    TITLE "2:cjc153_1005"
    INDEX 01 01:56:59
  TRACK 145 AUDIO
    TITLE "0:"
    INDEX 01 01:58:01
  TRACK 146 AUDIO
    TITLE "3:cjc153_1006"
    INDEX 01 01:58:34
  TRACK 147 AUDIO
    TITLE "0:"
    INDEX 01 01:59:53
  TRACK 148 AUDIO
    TITLE "2:cjc153_1007"
    INDEX 01 02:00:24
  TRACK 149 AUDIO
    TITLE "0:"
    INDEX 01 02:01:33
  TRACK 150 AUDIO
    TITLE "3:cjc153_1008"
    INDEX 01 02:01:66
  TRACK 151 AUDIO
    TITLE "0:"
    INDEX 01 02:03:08
  TRACK 152 AUDIO
    TITLE "2:cjc153_1009"
    INDEX 01 02:03:53
  TRACK 153 AUDIO
    TITLE "0:"
    INDEX 01 02:04:51
  TRACK 154 AUDIO
    TITLE "3:cjc153_1010"
    INDEX 01 02:05:09
  TRACK 155 AUDIO
    TITLE "0:"
    INDEX 01 02:06:12
  TRACK 156 AUDIO
    TITLE "2:cjc153_1011"
    INDEX 01 02:06:55
  TRACK 157 AUDIO
    TITLE "0:"
    INDEX 01 02:07:63
  TRACK 158 AUDIO
    TITLE "3:cjc153_1012"
    INDEX 01 02:08:21
  TRACK 159 AUDIO
    TITLE "0:"
    INDEX 01 02:09:36
  TRACK 160 AUDIO
    TITLE "2:cjc153_1013"
    INDEX 01 02:10:06
  TRACK 161 AUDIO
    TITLE "0:"
    INDEX 01 02:11:25
  TRACK 162 AUDIO
    TITLE "3:cjc153_1014"
    INDEX 01 02:11:57
  TRACK 163 AUDIO
    TITLE "0:"
    INDEX 01 02:13:01
  TRACK 164 AUDIO
    TITLE "2:cjc153_1015"
    INDEX 01 02:13:44
  TRACK 165 AUDIO
    TITLE "0:"
    INDEX 01 02:14:69
  TRACK 166 AUDIO
    TITLE "3:cjc153_1016"
    INDEX 01 02:15:29
  TRACK 167 AUDIO
    TITLE "0:"
    INDEX 01 02:16:58
  TRACK 168 AUDIO
    TITLE "2:cjc153_1017"
    INDEX 01 02:17:26
  TRACK 169 AUDIO
    TITLE "0:"
    INDEX 01 02:18:55
  TRACK 170 AUDIO
    TITLE "3:cjc153_1018"
    INDEX 01 02:19:13
  TRACK 171 AUDIO
    TITLE "0:"
    INDEX 01 02:20:46
  TRACK 172 AUDIO
    TITLE "2:cjc153_1019"
    INDEX 01 02:21:16
  TRACK 173 AUDIO
    TITLE "0:"
    INDEX 01 02:22:45
  TRACK 174 AUDIO
    TITLE "3:cjc153_1020"
    INDEX 01 02:23:03
  TRACK 175 AUDIO
    TITLE "0:"
    INDEX 01 02:24:36
  TRACK 176 AUDIO
    TITLE "2:cjc153_1021"
    INDEX 01 02:25:08
  TRACK 177 AUDIO
    TITLE "0:"
    INDEX 01 02:26:13
  TRACK 178 AUDIO
    TITLE "3:cjc153_1022"
    INDEX 01 02:26:44
  TRACK 179 AUDIO
    TITLE "0:"
    INDEX 01 02:27:48
  TRACK 180 AUDIO
    TITLE "2:cjc153_1023"
    INDEX 01 02:28:18
  TRACK 181 AUDIO
    TITLE "0:"
    INDEX 01 02:29:43
  TRACK 182 AUDIO
    TITLE "3:cjc153_1024"
    INDEX 01 02:30:01
  TRACK 183 AUDIO
    TITLE "0:"
    INDEX 01 02:31:28
  TRACK 184 AUDIO
    TITLE "2:cjc153_1025"
    INDEX 01 02:31:71
  TRACK 185 AUDIO
    TITLE "0:"
    INDEX 01 02:33:03
  TRACK 186 AUDIO
    TITLE "3:cjc153_1026"
    INDEX 01 02:33:37
  TRACK 187 AUDIO
    TITLE "0:"
    INDEX 01 02:34:48
  TRACK 188 AUDIO
    TITLE "2:cjc153_1027"
    INDEX 01 02:35:18
  TRACK 189 AUDIO
    TITLE "0:"
    INDEX 01 02:36:45
  TRACK 190 AUDIO
    TITLE "3:cjc153_1028"
    INDEX 01 02:37:03
  TRACK 191 AUDIO
    TITLE "0:"
    INDEX 01 02:38:36
  TRACK 192 AUDIO
    TITLE "2:cjc153_1029"
    INDEX 01 02:39:06
  TRACK 193 AUDIO
    TITLE "0:"
    INDEX 01 02:40:09
  TRACK 194 AUDIO
    TITLE "3:cjc153_1030"
    INDEX 01 02:40:41
  TRACK 195 AUDIO
    TITLE "0:"
    INDEX 01 02:41:46
  TRACK 196 AUDIO
    TITLE "2:cjc153_1031"
    INDEX 01 02:42:18
  TRACK 197 AUDIO
    TITLE "0:"
    INDEX 01 02:43:33
  TRACK 198 AUDIO
    TITLE "3:cjc153_1032"
    INDEX 01 02:43:68
  TRACK 199 AUDIO
    TITLE "0:"
    INDEX 01 02:45:12
  TRACK 200 AUDIO
    TITLE "2:cjc153_1033"
    INDEX 01 02:45:56
  TRACK 201 AUDIO
    TITLE "0:"
    INDEX 01 02:46:55
  TRACK 202 AUDIO
    TITLE "3:cjc153_1034"
    INDEX 01 02:47:11
  TRACK 203 AUDIO
    TITLE "0:"
    INDEX 01 02:48:13
  TRACK 204 AUDIO
    TITLE "2:cjc153_1035"
    INDEX 01 02:48:58
  TRACK 205 AUDIO
    TITLE "0:"
    INDEX 01 02:49:61
  TRACK 206 AUDIO
    TITLE "3:cjc153_1036"
    INDEX 01 02:50:21
  TRACK 207 AUDIO
    TITLE "0:"
    INDEX 01 02:51:31
  TRACK 208 AUDIO
    TITLE "2:cjc153_1037"
    INDEX 01 02:52:01
  TRACK 209 AUDIO
    TITLE "0:"
    INDEX 01 02:53:04
  TRACK 210 AUDIO
    TITLE "3:cjc153_1038"
    INDEX 01 02:53:35
  TRACK 211 AUDIO
    TITLE "0:"
    INDEX 01 02:54:43
  TRACK 212 AUDIO
    TITLE "2:cjc153_1039"
    INDEX 01 02:55:11
  TRACK 213 AUDIO
    TITLE "0:"
    INDEX 01 02:56:22
  TRACK 214 AUDIO
    TITLE "3:cjc153_1040"
    INDEX 01 02:56:53
  TRACK 215 AUDIO
    TITLE "0:"
    INDEX 01 02:57:70
  TRACK 216 AUDIO
    TITLE "2:cjc153_1041"
    INDEX 01 02:58:42
  TRACK 217 AUDIO
    TITLE "0:"
    INDEX 01 02:59:48
  TRACK 218 AUDIO
    TITLE "3:cjc153_1042"
    INDEX 01 03:00:06
  TRACK 219 AUDIO
    TITLE "0:"
    INDEX 01 03:01:25
  TRACK 220 AUDIO
    TITLE "2:cjc153_1043"
    INDEX 01 03:01:70
  TRACK 221 AUDIO
    TITLE "0:"
    INDEX 01 03:02:72
  TRACK 222 AUDIO
    TITLE "3:cjc153_1044"
    INDEX 01 03:03:32
  TRACK 223 AUDIO
    TITLE "0:"
    INDEX 01 03:04:41
  TRACK 224 AUDIO
    TITLE "2:cjc153_1045"
    INDEX 01 03:05:11
  TRACK 225 AUDIO
    TITLE "0:"
    INDEX 01 03:06:18
  TRACK 226 AUDIO
    TITLE "3:cjc153_1046"
    INDEX 01 03:06:48
  TRACK 227 AUDIO
    TITLE "0:"
    INDEX 01 03:07:57
  TRACK 228 AUDIO
    TITLE "2:cjc153_1047"
    INDEX 01 03:08:29
  TRACK 229 AUDIO
    TITLE "0:"
    INDEX 01 03:09:34
  TRACK 230 AUDIO
    TITLE "3:cjc153_1048"
    INDEX 01 03:09:66
  TRACK 231 AUDIO
    TITLE "0:"
    INDEX 01 03:11:04
  TRACK 232 AUDIO
    TITLE "2:cjc153_1049"
    INDEX 01 03:11:49
  TRACK 233 AUDIO
    TITLE "0:"
    INDEX 01 03:12:56
  TRACK 234 AUDIO
    TITLE "3:cjc153_1050"
    INDEX 01 03:13:15
  TRACK 235 AUDIO
    TITLE "0:"
    INDEX 01 03:14:28
  TRACK 236 AUDIO
    TITLE "2:cjc153_1051"
    INDEX 01 03:14:71
  TRACK 237 AUDIO
    TITLE "0:"
    INDEX 01 03:16:13
  TRACK 238 AUDIO
    TITLE "3:cjc153_1052"
    INDEX 01 03:16:44
  TRACK 239 AUDIO
    TITLE "0:"
    INDEX 01 03:17:67
  TRACK 240 AUDIO
    TITLE "2:cjc153_1053"
    INDEX 01 03:18:35
  TRACK 241 AUDIO
    TITLE "0:"
    INDEX 01 03:19:43
  TRACK 242 AUDIO
    TITLE "3:cjc153_1054"
    INDEX 01 03:19:74
  TRACK 243 AUDIO
    TITLE "0:"
    INDEX 01 03:21:06
  TRACK 244 AUDIO
    TITLE "2:cjc153_1055"
    INDEX 01 03:21:51
  TRACK 245 AUDIO
    TITLE "0:"
    INDEX 01 03:22:70
  TRACK 246 AUDIO
    TITLE "3:cjc153_1056"
    INDEX 01 03:23:27
  TRACK 247 AUDIO
    TITLE "0:"
    INDEX 01 03:24:46
  TRACK 248 AUDIO
    TITLE "2:cjc153_1057"
    INDEX 01 03:25:18
  TRACK 249 AUDIO
    TITLE "0:"
    INDEX 01 03:26:25
  TRACK 250 AUDIO
    TITLE "3:cjc153_1058"
    INDEX 01 03:26:58
  TRACK 251 AUDIO
    TITLE "0:"
    INDEX 01 03:27:70
  TRACK 252 AUDIO
    TITLE "2:cjc153_1059"
    INDEX 01 03:28:38
  TRACK 253 AUDIO
    TITLE "0:"
    INDEX 01 03:29:51
  TRACK 254 AUDIO
    TITLE "3:cjc153_1060"
    INDEX 01 03:30:09
  TRACK 255 AUDIO
    TITLE "0:"
    INDEX 01 03:31:28
  TRACK 256 AUDIO
    TITLE "2:cjc153_1061"
    INDEX 01 03:31:71
  TRACK 257 AUDIO
    TITLE "0:"
    INDEX 01 03:32:61
  TRACK 258 AUDIO
    TITLE "3:cjc153_1062"
    INDEX 01 03:33:31
  TRACK 259 AUDIO
    TITLE "0:"
    INDEX 01 03:34:25
  TRACK 260 AUDIO
    TITLE "2:cjc153_1063"
    INDEX 01 03:35:16
  TRACK 261 AUDIO
    TITLE "0:"
    INDEX 01 03:36:39
  TRACK 262 AUDIO
    TITLE "3:cjc153_1064"
    INDEX 01 03:36:71
  TRACK 263 AUDIO
    TITLE "0:"
    INDEX 01 03:38:26
  TRACK 264 AUDIO
    TITLE "2:cjc153_1065"
    INDEX 01 03:38:71
  TRACK 265 AUDIO
    TITLE "0:"
    INDEX 01 03:40:00
  TRACK 266 AUDIO
    TITLE "3:cjc153_1066"
    INDEX 01 03:40:33
  TRACK 267 AUDIO
    TITLE "0:"
    INDEX 01 03:41:48
  TRACK 268 AUDIO
    TITLE "2:cjc153_1067"
    INDEX 01 03:42:16
  TRACK 269 AUDIO
    TITLE "0:"
    INDEX 01 03:43:37
  TRACK 270 AUDIO
    TITLE "3:cjc153_1068"
    INDEX 01 03:43:69
  TRACK 271 AUDIO
    TITLE "0:"
    INDEX 01 03:45:09
  TRACK 272 AUDIO
    TITLE "2:cjc153_1069"
    INDEX 01 03:45:56
  TRACK 273 AUDIO
    TITLE "0:"
    INDEX 01 03:47:19
  TRACK 274 AUDIO
    TITLE "3:cjc153_1070"
    INDEX 01 03:47:53
  TRACK 275 AUDIO
    TITLE "0:"
    INDEX 01 03:49:24
